<?xml version="1.0" standalone="no"?>
<!DOCTYPE svg PUBLIC "-//W3C//DTD SVG 20010904//EN"
 "http://www.w3.org/TR/2001/REC-SVG-20010904/DTD/svg10.dtd">
<svg version="1.0" xmlns="http://www.w3.org/2000/svg"
 width="136.000000pt" height="114.000000pt" viewBox="0 0 136.000000 114.000000"
 preserveAspectRatio="xMidYMid meet">

<g transform="translate(0.000000,114.000000) scale(0.100000,-0.100000)"
fill="#000000" stroke="none">
<path d="M498 1101 c-155 -51 -272 -176 -308 -330 -16 -67 -8 -190 16 -251 77
-198 284 -320 487 -289 283 44 456 336 357 602 -40 108 -148 215 -257 258 -81
31 -217 36 -295 10z m203 -11 c134 -26 250 -114 311 -237 31 -64 33 -73 33
-178 0 -108 -1 -113 -38 -187 -78 -159 -232 -247 -409 -235 -244 17 -430 247
-388 484 30 176 158 311 330 349 70 16 95 16 161 4z"/>
<path d="M502 1052 c-66 -24 -148 -80 -185 -127 -16 -20 -40 -61 -55 -93 -24
-50 -27 -69 -27 -162 0 -96 3 -110 29 -165 38 -76 120 -159 190 -191 208 -95
436 -13 538 193 30 62 33 75 33 163 -1 123 -25 187 -102 270 -81 88 -158 123
-277 127 -70 3 -103 -1 -144 -15z m118 -41 c0 -11 -25 -38 -40 -43 -8 -2 -58
-282 -60 -330 0 -10 127 -10 133 0 3 4 8 32 11 63 7 52 5 57 -14 62 -14 4 -21
12 -18 24 3 16 17 18 128 21 141 4 172 -6 206 -61 14 -24 19 -51 19 -108 0
-101 -37 -178 -109 -226 -48 -33 -49 -33 -176 -33 l-127 0 5 25 c3 15 11 25
22 25 19 0 25 16 36 98 l7 52 -66 0 c-73 0 -68 7 -83 -102 -5 -40 -4 -48 10
-48 10 0 16 -9 16 -25 0 -25 -1 -25 -80 -25 -76 0 -80 1 -80 23 0 13 9 26 22
32 23 10 29 37 102 503 6 38 4 42 -14 42 -19 0 -27 20 -13 33 10 11 163 8 163
-2z"/>
<path d="M760 766 c0 -8 -39 -278 -45 -313 l-6 -33 44 0 c84 0 139 59 159 170
19 113 -21 180 -108 180 -24 0 -44 -2 -44 -4z"/>
<path d="M70 95 c0 -30 5 -55 10 -55 6 0 10 11 10 25 0 20 5 25 25 25 20 0 25
-5 25 -25 0 -14 5 -25 10 -25 6 0 10 25 10 55 0 30 -4 55 -10 55 -5 0 -10 -9
-10 -20 0 -15 -7 -20 -25 -20 -18 0 -25 5 -25 20 0 11 -4 20 -10 20 -5 0 -10
-25 -10 -55z"/>
<path d="M524 136 c-3 -8 -4 -31 -2 -52 3 -36 6 -39 36 -42 18 -2 40 2 48 9
19 15 18 64 -2 83 -19 20 -73 21 -80 2z m71 -25 c8 -26 -4 -51 -26 -51 -15 0
-19 7 -19 35 0 28 4 35 19 35 11 0 22 -8 26 -19z"/>
<path d="M645 140 c-3 -5 -2 -10 4 -10 5 0 13 5 16 10 3 6 2 10 -4 10 -5 0
-13 -4 -16 -10z"/>
<path d="M1056 134 c-18 -18 -20 -47 -6 -75 13 -23 62 -26 80 -4 16 19 5 34
-12 17 -18 -18 -46 -14 -53 7 -13 41 24 68 53 39 17 -17 28 -2 12 17 -16 20
-54 19 -74 -1z"/>
<path d="M1165 140 c-3 -5 -2 -10 4 -10 5 0 13 5 16 10 3 6 2 10 -4 10 -5 0
-13 -4 -16 -10z"/>
<path d="M184 106 c-3 -9 -3 -27 0 -41 5 -21 12 -25 41 -25 34 0 35 1 35 40 0
22 -4 40 -10 40 -5 0 -10 -11 -10 -24 0 -13 -7 -29 -15 -36 -13 -11 -15 -8
-15 18 0 34 -17 52 -26 28z"/>
<path d="M284 105 c-13 -32 1 -60 31 -65 20 -4 26 -8 17 -13 -7 -5 -22 -5 -33
-2 -15 5 -19 4 -15 -4 11 -17 63 -13 70 5 3 9 6 33 6 53 0 36 -1 38 -35 39
-23 1 -38 -4 -41 -13z m44 -42 c-16 -15 -18 -15 -24 0 -3 9 -3 25 0 34 6 15 8
15 24 0 15 -16 15 -18 0 -34z"/>
<path d="M392 108 c-29 -29 -3 -72 40 -66 19 2 23 9 23 38 0 30 -4 35 -25 38
-14 2 -31 -3 -38 -10z m43 -28 c0 -27 -22 -39 -31 -16 -8 22 3 49 19 43 6 -2
12 -14 12 -27z"/>
<path d="M640 80 c0 -22 5 -40 10 -40 6 0 10 18 10 40 0 22 -4 40 -10 40 -5 0
-10 -18 -10 -40z"/>
<path d="M695 110 c-11 -17 3 -25 19 -11 9 7 17 8 20 2 3 -5 -7 -14 -24 -19
-41 -15 -30 -42 16 -40 34 1 35 3 32 37 -3 31 -7 36 -30 39 -14 2 -29 -2 -33
-8z m45 -39 c0 -12 -20 -25 -27 -18 -7 7 6 27 18 27 5 0 9 -4 9 -9z"/>
<path d="M780 110 c0 -5 7 -10 16 -10 15 0 15 -2 0 -25 -22 -34 -21 -35 22
-34 23 1 28 3 15 6 -28 5 -29 15 -3 38 29 26 25 35 -15 35 -19 0 -35 -4 -35
-10z"/>
<path d="M914 98 c18 -65 18 -76 0 -81 -14 -3 -11 -5 8 -6 23 -1 28 5 42 46
18 53 19 63 8 63 -5 0 -13 -12 -19 -27 l-10 -28 -8 28 c-4 15 -12 27 -17 27
-6 0 -8 -10 -4 -22z"/>
<path d="M1160 80 c0 -22 5 -40 10 -40 6 0 10 18 10 40 0 22 -4 40 -10 40 -5
0 -10 -18 -10 -40z"/>
<path d="M1210 104 c0 -13 3 -14 15 -4 8 6 19 8 26 4 7 -4 0 -12 -21 -20 -41
-18 -34 -39 14 -41 37 -1 37 -1 34 35 -3 34 -6 37 -35 40 -26 3 -33 -1 -33
-14z m35 -43 c-3 -6 -11 -8 -17 -5 -6 4 -5 9 3 15 16 10 23 4 14 -10z"/>
</g>
</svg>
